<?xml version="1.0" encoding="UTF-8"?>
<svg version="1.1" xmlns="http://www.w3.org/2000/svg" width="702" height="700">
<path d="M0 0 C0.76837189 0.00141495 1.53674377 0.0028299 2.32839966 0.00428772 C4.76324489 0.00984942 7.19799544 0.02239465 9.6328125 0.03515625 C11.29166533 0.04017621 12.95051962 0.04473824 14.609375 0.04882812 C18.6588902 0.05980627 22.70833534 0.07704419 26.7578125 0.09765625 C26.7578125 0.75765625 26.7578125 1.41765625 26.7578125 2.09765625 C28.5521875 2.19046875 28.5521875 2.19046875 30.3828125 2.28515625 C45.2375638 3.98217792 60.60889536 11.77977545 71.76953125 21.49609375 C73.76458393 23.29371474 73.76458393 23.29371474 76.7578125 24.09765625 C78.96139687 26.30124062 80.82118439 28.65628773 82.7578125 31.09765625 C83.38300781 31.85304688 84.00820313 32.6084375 84.65234375 33.38671875 C107.86054916 61.65251678 109.80464136 93.40863006 110.78686523 128.56176758 C111.12488432 140.3011264 111.65953578 151.92985993 113.15625 163.5859375 C113.27254257 164.49949509 113.38883514 165.41305267 113.50865173 166.35429382 C116.0016577 184.2684628 122.69106733 201.61318925 134.5078125 215.4609375 C135.7578125 217.09765625 135.7578125 217.09765625 135.7578125 219.09765625 C136.4178125 219.09765625 137.0778125 219.09765625 137.7578125 219.09765625 C139.265625 220.55859375 139.265625 220.55859375 140.8828125 222.47265625 C141.42164063 223.09914063 141.96046875 223.725625 142.515625 224.37109375 C143.7578125 226.09765625 143.7578125 226.09765625 143.7578125 228.09765625 C144.4178125 228.09765625 145.0778125 228.09765625 145.7578125 228.09765625 C147.47263046 229.71473847 149.12990375 231.39311271 150.7578125 233.09765625 C151.69962366 234.05555272 152.6436755 235.01125078 153.58984375 235.96484375 C154.07412842 236.45428467 154.55841309 236.94372559 155.05737305 237.44799805 C158.92432104 241.3448982 162.77479512 245.2092307 166.9453125 248.78515625 C175.12091565 255.7952292 182.16919335 263.5915371 188.7578125 272.09765625 C189.55058594 273.11214844 190.34335937 274.12664062 191.16015625 275.171875 C216.78403883 308.91643204 227.92665252 353.2241972 222.35742188 395.10888672 C221.00410612 404.00189888 219.50707102 412.68508032 216.24169922 421.09423828 C215.6650535 423.48170287 215.92441276 424.80580696 216.7578125 427.09765625 C218.38660988 429.12321196 220.16063132 430.9388629 221.96875 432.8046875 C226.62144668 438.76785989 227.272443 444.65902044 227.7578125 451.97265625 C228.4925615 462.94379476 230.32820307 471.52821105 238.7578125 479.09765625 C242.04203324 481.69469195 245.39900694 484.19078323 248.80737305 486.62231445 C255.05425403 491.11597742 261.08883315 495.93218312 264.6328125 502.91015625 C265.02210938 503.65910156 265.41140625 504.40804688 265.8125 505.1796875 C266.12445312 505.81261719 266.43640625 506.44554687 266.7578125 507.09765625 C267.0878125 507.75765625 267.4178125 508.41765625 267.7578125 509.09765625 C268.84563307 519.53003387 265.94966539 527.05192929 259.48828125 535.140625 C247.90146827 548.24444736 231.45092471 556.00716809 216.15844727 563.92431641 C206.5625587 568.96338364 197.84456634 574.84699557 189.9453125 582.28515625 C189.04296875 583.12175781 188.140625 583.95835937 187.2109375 584.8203125 C186.40140625 585.57183594 185.591875 586.32335937 184.7578125 587.09765625 C179.16497134 592.09765625 179.16497134 592.09765625 176.7578125 592.09765625 C176.7578125 592.75765625 176.7578125 593.41765625 176.7578125 594.09765625 C161.9992634 607.69371689 144.21968111 615.72152356 124.015625 615.26953125 C119.89168794 615.05196143 115.848534 614.6618937 111.7578125 614.09765625 C111.7578125 613.43765625 111.7578125 612.77765625 111.7578125 612.09765625 C110.27474609 611.96617187 110.27474609 611.96617187 108.76171875 611.83203125 C104.29644878 611.18948171 100.67082666 609.40539146 96.6953125 607.34765625 C96.01404297 607.0125 95.33277344 606.67734375 94.63085938 606.33203125 C88.00609486 602.97192014 83.10087994 598.88577851 78.5078125 592.97265625 C77.84265625 592.12445312 77.1775 591.27625 76.4921875 590.40234375 C75.19191466 588.67450371 73.95731761 586.89691392 72.7578125 585.09765625 C70.37292439 584.63412525 70.37292439 584.63412525 67.54403687 584.69892883 C66.43903336 584.68639069 65.33402985 584.67385254 64.19554138 584.66093445 C62.97778519 584.66236954 61.76002899 584.66380463 60.50537109 584.6652832 C59.2273613 584.65509155 57.9493515 584.6448999 56.63261414 584.63439941 C53.12249155 584.6067462 49.61253095 584.59753374 46.10231352 584.59154534 C42.4360327 584.58218317 38.76987393 584.55598166 35.10366821 584.53153992 C28.15868775 584.48781157 21.21373087 584.45930364 14.26865447 584.43621653 C6.36300537 584.40919869 -1.54252133 584.36528518 -9.44808316 584.31992781 C-25.71272265 584.22699088 -41.97738403 584.15535173 -58.2421875 584.09765625 C-58.54310303 584.71858154 -58.84401855 585.33950684 -59.15405273 585.97924805 C-65.50629117 598.34594603 -79.01853923 605.53047346 -91.58203125 609.9140625 C-108.64182947 614.45698828 -124.81618642 608.45509607 -140.60748291 602.51669312 C-158.82157436 595.67391993 -177.12314958 590.71432415 -196.1875 586.84765625 C-197.15575714 586.65120514 -198.12401428 586.45475403 -199.12161255 586.25234985 C-203.96096281 585.27471393 -208.80282186 584.31388861 -213.65087891 583.38037109 C-248.37277912 576.60802861 -248.37277912 576.60802861 -258.05078125 563.125 C-262.07862881 556.27105612 -262.24439371 548.83989049 -261.2421875 541.09765625 C-259.97033505 536.55812135 -258.22850332 532.36675294 -256.2421875 528.09765625 C-250.40983649 514.87451225 -252.15237074 502.92966871 -254.7421875 488.97265625 C-259.70846506 462.04737843 -259.70846506 462.04737843 -252.66015625 451.796875 C-249.56240991 448.10522523 -246.56449404 445.32055676 -242.2421875 443.09765625 C-241.5821875 442.43765625 -240.9221875 441.77765625 -240.2421875 441.09765625 C-237.77124023 440.47509766 -237.77124023 440.47509766 -234.67578125 439.94921875 C-233.54978516 439.748125 -232.42378906 439.54703125 -231.26367188 439.33984375 C-228.90220987 438.93318326 -226.54023907 438.52946477 -224.17773438 438.12890625 C-211.33076336 435.82360083 -204.38194765 432.59152133 -196.734375 422.01171875 C-192.74807111 416.06643124 -192.04375959 411.69965004 -192.8046875 404.59765625 C-194.50014685 386.30930135 -186.86394842 371.73703554 -178.22729492 356.28955078 C-171.24748635 343.75280898 -165.66287961 330.9681307 -160.73065186 317.52020264 C-151.19057597 291.64357373 -138.78787927 269.6097801 -120.2421875 249.09765625 C-119.71915039 248.51822266 -119.19611328 247.93878906 -118.65722656 247.34179688 C-114.1356001 242.352225 -109.59427976 237.4098229 -104.7734375 232.70703125 C-92.67752332 220.6607651 -84.61476857 208.1200754 -84.125 190.79296875 C-84.24759113 186.92726184 -84.88999736 184.4922403 -86.53125 181.07421875 C-88.65823501 175.16073296 -87.54986745 168.33321539 -86.171875 162.36328125 C-85.04312043 156.95274725 -85.39090084 152.17292842 -86.0546875 146.72265625 C-86.25974098 144.78419318 -86.46149418 142.84537851 -86.66015625 140.90625 C-86.76118652 139.93671387 -86.8622168 138.96717773 -86.96630859 137.96826172 C-87.69702887 130.36489087 -87.99654928 122.73010118 -88.2421875 115.09765625 C-88.26555176 114.37803711 -88.28891602 113.65841797 -88.31298828 112.91699219 C-88.95941797 89.46082916 -86.41936245 66.06926286 -75.2421875 45.09765625 C-74.80390625 44.24171875 -74.365625 43.38578125 -73.9140625 42.50390625 C-62.03813987 20.93613872 -40.72163706 8.94284647 -17.87109375 2.078125 C-11.85485608 0.4526399 -6.21560972 -0.04366989 0 0 Z M12.7578125 89.09765625 C12.14292969 89.52175781 11.52804687 89.94585937 10.89453125 90.3828125 C2.99188234 96.45786808 -0.58517814 105.47923472 -2.2421875 115.09765625 C-2.56617893 119.14248672 -2.53646626 123.05276577 -2.2421875 127.09765625 C-2.18998047 128.19013672 -2.18998047 128.19013672 -2.13671875 129.3046875 C-1.93802122 131.44040714 -1.93802122 131.44040714 -0.2421875 134.09765625 C3.00264155 135.58717675 6.28369567 136.33475897 9.7578125 137.09765625 C10.4178125 137.42765625 11.0778125 137.75765625 11.7578125 138.09765625 C11.19041382 133.96791997 11.19041382 133.96791997 9.7578125 130.09765625 C10.33258285 123.40327214 11.74632868 116.60693435 15.7578125 111.09765625 C18.7578125 108.72265625 18.7578125 108.72265625 21.7578125 107.09765625 C22.3765625 106.62328125 22.9953125 106.14890625 23.6328125 105.66015625 C27.35916608 104.67376854 30.46005557 106.34367 33.7578125 108.09765625 C37.85028032 111.37163051 40.55503176 114.9695213 41.7578125 120.09765625 C42.50249086 127.5036356 41.82846677 133.34221686 38.7578125 140.09765625 C38.4278125 141.08765625 38.0978125 142.07765625 37.7578125 143.09765625 C37.0978125 143.09765625 36.4378125 143.09765625 35.7578125 143.09765625 C35.7578125 143.75765625 35.7578125 144.41765625 35.7578125 145.09765625 C34.7678125 145.42765625 33.7778125 145.75765625 32.7578125 146.09765625 C33.7478125 146.75765625 34.7378125 147.41765625 35.7578125 148.09765625 C36.30179687 148.4740625 36.84578125 148.85046875 37.40625 149.23828125 C41.12387424 151.6862692 41.12387424 151.6862692 45.4453125 151.66015625 C51.57641577 147.51751891 53.88105769 141.20839731 55.42529297 134.22265625 C56.71024743 126.01102366 57.01381079 116.14635875 54.7578125 108.09765625 C54.0978125 108.09765625 53.4378125 108.09765625 52.7578125 108.09765625 C53.2528125 106.61265625 53.2528125 106.61265625 53.7578125 105.09765625 C53.0978125 104.10765625 52.4378125 103.11765625 51.7578125 102.09765625 C51.2628125 102.59265625 51.2628125 102.59265625 50.7578125 103.09765625 C50.2628125 102.10765625 50.2628125 102.10765625 49.7578125 101.09765625 C50.4178125 100.76765625 51.0778125 100.43765625 51.7578125 100.09765625 C50.80737876 98.75868042 49.84722103 97.42660198 48.8828125 96.09765625 C48.34914063 95.35515625 47.81546875 94.61265625 47.265625 93.84765625 C46.76804687 93.27015625 46.27046875 92.69265625 45.7578125 92.09765625 C45.0978125 92.09765625 44.4378125 92.09765625 43.7578125 92.09765625 C42.9946875 91.31390625 42.2315625 90.53015625 41.4453125 89.72265625 C37.14555656 85.52289463 33.36572376 84.79355938 27.4453125 84.72265625 C21.54870909 84.82902114 17.5610605 85.69403018 12.7578125 89.09765625 Z M-68.8046875 94.59765625 C-76.51907133 104.70447557 -76.25366972 116.96753234 -75.2421875 129.09765625 C-74.58819017 133.25584199 -73.62035295 137.12456667 -72.2421875 141.09765625 C-71.95601562 141.92265625 -71.66984375 142.74765625 -71.375 143.59765625 C-70.70146769 145.44505915 -69.97851396 147.27437169 -69.2421875 149.09765625 C-64.4904477 148.6656799 -62.32218696 147.7699633 -59.2421875 144.09765625 C-60.0259375 143.04578125 -60.8096875 141.99390625 -61.6171875 140.91015625 C-66.23951106 134.70651147 -66.5140295 129.90764433 -65.78515625 122.3359375 C-64.89154543 117.00641683 -63.02954297 113.14034822 -59.4921875 109.09765625 C-55.97331311 107.53371208 -52.9189959 107.00899231 -49.2421875 108.09765625 C-45.3984348 111.26706637 -41.96661363 115.38864643 -40.2421875 120.09765625 C-40.10259893 122.7219213 -40.05287381 125.23058372 -40.1171875 127.84765625 C-40.12621094 128.54503906 -40.13523437 129.24242187 -40.14453125 129.9609375 C-40.16798862 131.67332583 -40.20385646 133.38553629 -40.2421875 135.09765625 C-37.13775473 134.43607585 -37.13775473 134.43607585 -36.1171875 132.09765625 C-34.66019312 127.10224696 -33.57397969 122.10227969 -35.2421875 117.09765625 C-35.2009375 116.39640625 -35.1596875 115.69515625 -35.1171875 114.97265625 C-35.40651425 108.31814103 -38.13614531 102.26332223 -42.2421875 97.09765625 C-42.9021875 97.09765625 -43.5621875 97.09765625 -44.2421875 97.09765625 C-44.33371094 96.4840625 -44.42523438 95.87046875 -44.51953125 95.23828125 C-45.05664792 93.01630628 -45.05664792 93.01630628 -46.80859375 91.83203125 C-55.35329953 87.61820374 -61.73242528 87.69788823 -68.8046875 94.59765625 Z M-51.18603516 152.76318359 C-53.23574256 154.09347339 -55.30301486 155.39070952 -57.37890625 156.6796875 C-58.66673976 157.48556028 -59.95450326 158.29154498 -61.2421875 159.09765625 C-61.84780518 159.47108154 -62.45342285 159.84450684 -63.07739258 160.22924805 C-64.50088208 161.13210654 -65.87745327 162.10822394 -67.2421875 163.09765625 C-67.2421875 163.75765625 -67.2421875 164.41765625 -67.2421875 165.09765625 C-67.8403125 165.30390625 -68.4384375 165.51015625 -69.0546875 165.72265625 C-72.17090159 167.68141939 -73.03033959 169.66408719 -74.2421875 173.09765625 C-73.60494914 177.34591197 -70.96955797 179.75607758 -67.7109375 182.4140625 C-62.20434604 186.16934876 -56.17995717 189.09153341 -50.2421875 192.09765625 C-49.14970703 192.67773438 -49.14970703 192.67773438 -48.03515625 193.26953125 C-46.11219851 194.15769474 -44.30892177 194.6436915 -42.2421875 195.09765625 C-41.52160156 195.28585938 -40.80101562 195.4740625 -40.05859375 195.66796875 C-35.74108002 196.73051112 -32.62179821 197.32942176 -28.2421875 196.09765625 C-27.9121875 196.42765625 -27.5821875 196.75765625 -27.2421875 197.09765625 C-4.81296901 199.68947705 23.4598381 186.71521057 40.7578125 173.09765625 C42.9188336 169.85612459 43.40028803 168.86072724 42.7578125 165.09765625 C39.70715152 162.04699527 36.72448767 160.62490294 32.7578125 159.09765625 C28.96095962 157.54765895 25.17144575 155.98012563 21.3828125 154.41015625 C20.30950684 153.96607422 19.23620117 153.52199219 18.13037109 153.06445312 C12.12966043 150.56348034 6.22496963 147.94703526 0.3828125 145.09765625 C-5.1393902 142.48122799 -10.14720816 140.66200619 -16.2421875 140.09765625 C-17.04914063 140.01644531 -17.85609375 139.93523437 -18.6875 139.8515625 C-31.29413523 139.19949516 -41.08385783 146.15115569 -51.18603516 152.76318359 Z M48.7578125 185.09765625 C48.38011719 185.55914062 48.00242187 186.020625 47.61328125 186.49609375 C32.75715783 204.10077396 9.86320634 223.47181469 -13.5546875 226.91015625 C-15.38 227.00296875 -15.38 227.00296875 -17.2421875 227.09765625 C-17.92152344 227.14792969 -18.60085938 227.19820312 -19.30078125 227.25 C-32.88322757 227.85527836 -44.79832037 222.23930372 -54.8046875 213.41015625 C-57.37415547 211.02980112 -59.29245889 209.02224917 -61.2421875 206.09765625 C-61.9021875 206.09765625 -62.5621875 206.09765625 -63.2421875 206.09765625 C-64.12803797 208.48546772 -64.97440075 210.87798538 -65.8046875 213.28515625 C-66.05154297 213.93935547 -66.29839844 214.59355469 -66.55273438 215.26757812 C-68.46069017 220.93770027 -68.15173009 225.77388019 -67.55053711 231.68041992 C-67.03996994 237.33870073 -67.18457542 242.98403087 -67.2421875 248.66015625 C-67.30777606 262.04105244 -67.10881948 275.4077632 -66.8046875 288.78515625 C-66.78494873 289.69838654 -66.76520996 290.61161682 -66.74487305 291.55252075 C-66.53019756 301.37094266 -66.2358711 311.18223133 -65.76953125 320.9921875 C-65.73243546 321.80523849 -65.69533966 322.61828949 -65.65711975 323.45597839 C-65.48349361 326.87907614 -65.22725236 330.20060743 -64.73461914 333.59643555 C-64.1415228 337.81338876 -63.98209735 341.97037368 -63.8359375 346.22265625 C-63.37850236 357.8967518 -62.7416449 369.55831858 -62.0859375 381.22265625 C-62.03235077 382.17901978 -61.97876404 383.1353833 -61.92355347 384.12072754 C-61.53170795 391.11314703 -61.13727275 398.10541916 -60.7421875 405.09765625 C-60.29252004 413.0558918 -59.84390596 421.01418444 -59.3984375 428.97265625 C-59.3454248 429.91928131 -59.29241211 430.86590637 -59.23779297 431.84121704 C-58.46999122 445.58959285 -57.76423622 459.33738689 -57.2421875 473.09765625 C-61.66517115 471.74249397 -65.59451999 469.99611145 -69.6796875 467.83203125 C-70.9179612 467.18227729 -72.15624272 466.53253821 -73.39453125 465.8828125 C-75.30565701 464.87309701 -77.21583914 463.86162628 -79.12548828 462.84912109 C-88.00599223 458.15040496 -96.94308257 453.91258181 -106.2421875 450.09765625 C-105.5004255 454.45169446 -104.22635402 456.920612 -101.5546875 460.47265625 C-100.89082031 461.36726563 -100.22695312 462.261875 -99.54296875 463.18359375 C-98.78371094 464.14523437 -98.02445313 465.106875 -97.2421875 466.09765625 C-96.59745483 466.94251587 -96.59745483 466.94251587 -95.93969727 467.80444336 C-92.0868987 472.62423955 -87.76605547 475.67460513 -82.5546875 478.91015625 C-60.48742766 493.16127427 -60.48742766 493.16127427 -57.69140625 505.53515625 C-56.65499439 512.40269341 -57.89144188 517.35783367 -61.6171875 523.28515625 C-62.51475973 525.23157893 -62.51475973 525.23157893 -61.1796875 527.59765625 C-52.09217677 539.32347654 -35.45309921 541.39396955 -21.68359375 543.69140625 C6.65261628 547.03642991 36.71248664 538.51339889 59.07592773 520.94140625 C73.07417773 510.37448072 73.07417773 510.37448072 80.24438477 495.09350586 C80.35322998 493.99014893 80.4620752 492.88679199 80.57421875 491.75 C80.69821045 490.51330566 80.82220215 489.27661133 80.94995117 488.00244141 C81.07217041 486.6932373 81.19438965 485.3840332 81.3203125 484.03515625 C81.45083483 482.6866772 81.58145059 481.33820719 81.7121582 479.98974609 C82.72144638 469.37296269 83.39417642 458.7559551 83.7578125 448.09765625 C79.37669527 448.79638477 75.41173912 450.27900322 71.30859375 451.90625 C70.58629578 452.18878128 69.8639978 452.47131256 69.11981201 452.7624054 C66.76850929 453.68295608 64.41944282 454.60907771 62.0703125 455.53515625 C59.63293754 456.49081622 57.1950039 457.44504169 54.75706482 458.39926147 C53.12028557 459.04006576 51.48369935 459.68136332 49.8473053 460.32315063 C42.51733117 463.197157 35.17192306 466.02947659 27.8203125 468.84765625 C25.76944942 469.63390117 23.71866107 470.42034105 21.66796875 471.20703125 C20.83402588 471.52639648 20.00008301 471.84576172 19.14086914 472.17480469 C16.67229737 473.13077245 14.21389228 474.11008415 11.7578125 475.09765625 C11.73096155 472.61841824 11.71104703 470.13946785 11.6953125 467.66015625 C11.68274414 466.59958008 11.68274414 466.59958008 11.66992188 465.51757812 C11.66127662 463.71072066 11.70561239 461.90378022 11.7578125 460.09765625 C12.0878125 459.76765625 12.4178125 459.43765625 12.7578125 459.09765625 C12.80439671 456.93149043 12.79548796 454.76399533 12.7578125 452.59765625 C12.72013704 450.43131717 12.71122829 448.26382207 12.7578125 446.09765625 C13.0878125 445.76765625 13.4178125 445.43765625 13.7578125 445.09765625 C13.92780087 443.56985722 14.03486553 442.03502085 14.1171875 440.5 C14.17817627 439.49138916 14.23916504 438.48277832 14.30200195 437.44360352 C14.40387817 435.75642212 14.40387817 435.75642212 14.5078125 434.03515625 C16.22739932 408.70451904 19.44104005 383.39240363 24.23364258 358.45922852 C24.53371216 356.89773071 24.53371216 356.89773071 24.83984375 355.3046875 C25.10631714 353.96627808 25.10631714 353.96627808 25.37817383 352.60083008 C25.8307166 350.11551929 25.8307166 350.11551929 25.69018555 347.6472168 C25.77401044 344.48698793 26.71820796 342.08398451 27.7578125 339.09765625 C28.50108106 336.18846161 29.13839811 333.25703282 29.78125 330.32421875 C30.06242172 329.06211075 30.06242172 329.06211075 30.34927368 327.77450562 C30.94676433 325.09120688 31.54015319 322.40702587 32.1328125 319.72265625 C34.57195239 308.69588016 37.0445921 297.69160829 39.85009766 286.75146484 C40.51725114 284.06598365 41.14269515 281.38696429 41.73339844 278.68481445 C42.71161761 274.2366602 43.81900128 269.83215422 44.984375 265.4296875 C45.19784576 264.62038284 45.41131653 263.81107819 45.6312561 262.97724915 C47.31555662 256.64550732 49.09640649 250.343728 50.90625 244.046875 C51.4414288 242.17643874 51.97658498 240.30599602 52.51171875 238.43554688 C53.32865271 235.58123214 54.14941002 232.7282689 54.98095703 229.87817383 C55.80088039 227.06256556 56.60491457 224.24282106 57.40625 221.421875 C57.65821136 220.57187424 57.91017273 219.72187347 58.16976929 218.84611511 C59.899619 212.68005294 59.71368267 208.18602198 57.41796875 202.15234375 C57.15951172 201.46785156 56.90105469 200.78335938 56.63476562 200.078125 C56.36599609 199.38332031 56.09722656 198.68851563 55.8203125 197.97265625 C55.55541016 197.27011719 55.29050781 196.56757813 55.01757812 195.84375 C53.10030702 189.49513587 53.10030702 189.49513587 48.7578125 185.09765625 Z M123.7578125 227.09765625 C121.80629623 229.04917252 122.04812501 232.5493437 121.6953125 235.16015625 C121.51871094 236.45050781 121.34210938 237.74085938 121.16015625 239.0703125 C121.02738281 240.06933594 120.89460938 241.06835938 120.7578125 242.09765625 C120.18417969 242.23300781 119.61054688 242.36835938 119.01953125 242.5078125 C111.73640765 244.35345991 104.7698925 246.84966941 97.7487793 249.49633789 C93.11462624 251.24229551 88.47271573 252.87475517 83.74487305 254.35083008 C80.71253756 255.49051729 78.34950915 257.1704972 75.7578125 259.09765625 C76.04076138 262.44588471 76.52616049 263.8557843 78.8828125 266.31640625 C80.3059375 267.445625 80.3059375 267.445625 81.7578125 268.59765625 C82.5307666 269.21809814 82.5307666 269.21809814 83.31933594 269.85107422 C85.11883412 271.28447485 86.93593994 272.69280616 88.7578125 274.09765625 C89.49451172 274.66774414 90.23121094 275.23783203 90.99023438 275.82519531 C95.89177151 279.61052062 100.81567881 283.36551751 105.7578125 287.09765625 C103.95652115 290.84228709 101.69451199 294.11945985 99.2578125 297.47265625 C98.34756643 298.73561235 97.43741263 299.99863496 96.52734375 301.26171875 C96.06408691 301.90270508 95.60083008 302.54369141 95.12353516 303.20410156 C93.4544777 305.51822556 91.79826954 307.84131095 90.14331055 310.16552734 C84.28613324 318.38968705 78.36957716 326.57088242 72.453125 334.75244141 C70.74116642 337.12068365 69.03051767 339.4898663 67.3203125 341.859375 C66.75892578 342.63692139 66.19753906 343.41446777 65.61914062 344.21557617 C64.51543686 345.74508164 63.4125532 347.27517928 62.31054688 348.8059082 C59.95245329 352.07809016 57.5865276 355.34149958 55.1640625 358.56640625 C54.431875 359.54609375 53.6996875 360.52578125 52.9453125 361.53515625 C52.32011719 362.35886719 51.69492187 363.18257812 51.05078125 364.03125 C49.492597 366.11525674 49.492597 366.11525674 49.7578125 369.09765625 C49.0978125 369.42765625 48.4378125 369.75765625 47.7578125 370.09765625 C48.7478125 370.42765625 49.7378125 370.75765625 50.7578125 371.09765625 C56.87882968 364.54187523 62.82522376 357.92340704 68.453125 350.93359375 C70.51595406 348.39526511 72.61652647 345.89906637 74.74145508 343.41308594 C80.42475413 336.76345651 85.87552107 329.96010053 91.23632812 323.04882812 C92.88352138 320.93644551 94.54633488 318.83696809 96.2109375 316.73828125 C103.53345673 307.47011231 110.3892663 298.04667543 116.7578125 288.09765625 C115.2728125 287.10765625 115.2728125 287.10765625 113.7578125 286.09765625 C114.7478125 285.10765625 114.7478125 285.10765625 115.7578125 284.09765625 C115.20996094 283.659375 114.66210938 283.22109375 114.09765625 282.76953125 C104.65104167 275.21223958 95.20442708 267.65494792 85.7578125 260.09765625 C86.50417969 259.85273438 87.25054687 259.6078125 88.01953125 259.35546875 C90.51433081 258.53050652 93.00598065 257.69821871 95.49609375 256.859375 C99.06096614 255.65909822 102.63375592 254.48522889 106.21083069 253.32183838 C108.85506074 252.45769722 111.49433148 251.57900039 114.13296509 250.69793701 C115.46712338 250.25577605 116.80323152 249.81945595 118.14120483 249.38897705 C120.04706392 248.77465124 121.94559497 248.13773235 123.84375 247.5 C124.9579834 247.13382568 126.0722168 246.76765137 127.22021484 246.39038086 C129.8746576 245.36292413 129.8746576 245.36292413 130.68530273 243.14746094 C130.79971479 239.91310541 129.63180698 237.39477475 128.4453125 234.41015625 C127.99542969 233.25128906 127.54554688 232.09242188 127.08203125 230.8984375 C126.06034701 227.99165353 126.06034701 227.99165353 123.7578125 227.09765625 Z M-92.2421875 234.09765625 C-91.2421875 236.09765625 -91.2421875 236.09765625 -91.2421875 236.09765625 Z M-93.2421875 236.09765625 C-94.74813431 237.71714667 -96.24679418 239.34341599 -97.7421875 240.97265625 C-98.5775 241.87757813 -99.4128125 242.7825 -100.2734375 243.71484375 C-102.45450309 245.83947257 -102.45450309 245.83947257 -102.2421875 248.09765625 C-103.2321875 248.42765625 -104.2221875 248.75765625 -105.2421875 249.09765625 C-107.1398477 251.07735901 -107.1398477 251.07735901 -108.9296875 253.47265625 C-109.55230469 254.26414062 -110.17492187 255.055625 -110.81640625 255.87109375 C-112.51181915 258.07806775 -112.51181915 258.07806775 -112.2421875 261.09765625 C-109.78504203 261.93464011 -107.32659893 262.76738049 -104.8671875 263.59765625 C-103.81917969 263.95537109 -103.81917969 263.95537109 -102.75 264.3203125 C-99.07815671 265.63501537 -99.07815671 265.63501537 -95.2421875 266.09765625 C-98.80738799 270.3274474 -102.45505861 274.38410122 -106.4609375 278.203125 C-107.16476563 278.87666016 -107.86859375 279.55019531 -108.59375 280.24414062 C-110.04834976 281.6260104 -111.51222084 282.99817492 -112.984375 284.36132812 C-113.67789063 285.03099609 -114.37140625 285.70066406 -115.0859375 286.390625 C-115.71693359 286.98383545 -116.34792969 287.5770459 -116.99804688 288.18823242 C-118.49857885 290.06501509 -118.49857885 290.06501509 -118.04003906 292.56665039 C-109.40252563 319.96723231 -93.50273876 346.52439898 -77.2421875 370.09765625 C-76.5821875 369.76765625 -75.9221875 369.43765625 -75.2421875 369.09765625 C-84.27780292 348.58069271 -84.27780292 348.58069271 -94.05859375 328.4140625 C-96.86865916 322.89719229 -99.57876359 317.33105603 -102.28051758 311.76055908 C-103.16250188 309.94552256 -104.05091561 308.1336148 -104.93945312 306.32177734 C-105.48150391 305.2023877 -106.02355469 304.08299805 -106.58203125 302.9296875 C-107.07050537 301.92655518 -107.55897949 300.92342285 -108.06225586 299.88989258 C-109.18646479 297.22952065 -109.9561892 294.97023423 -110.2421875 292.09765625 C-108.5390625 289.73828125 -108.5390625 289.73828125 -105.9921875 287.34765625 C-105.07824219 286.48527344 -104.16429687 285.62289062 -103.22265625 284.734375 C-99.43097734 281.38000637 -95.55667643 278.15274028 -91.58984375 275.0078125 C-87.46630428 271.7547282 -87.46630428 271.7547282 -85.3671875 267.09765625 C-84.93056143 264.1764077 -84.93056143 264.1764077 -86.3984375 262.5390625 C-88.69030099 260.74733024 -90.8641673 259.9666576 -93.6171875 259.03515625 C-97.20033452 257.80622566 -100.73557119 256.5321811 -104.2421875 255.09765625 C-104.2421875 254.43765625 -104.2421875 253.77765625 -104.2421875 253.09765625 C-103.2521875 252.76765625 -102.2621875 252.43765625 -101.2421875 252.09765625 C-99.54302465 249.81187766 -98.00265565 247.56404011 -96.4921875 245.16015625 C-96.06808594 244.51369141 -95.64398438 243.86722656 -95.20703125 243.20117188 C-94.14933065 241.54227012 -93.18750602 239.8230717 -92.2421875 238.09765625 C-92.5721875 237.43765625 -92.9021875 236.77765625 -93.2421875 236.09765625 Z M126.7578125 310.09765625 C127.7578125 312.09765625 127.7578125 312.09765625 127.7578125 312.09765625 Z M127.7578125 313.09765625 C127.89880371 313.80672119 128.03979492 314.51578613 128.18505859 315.24633789 C132.79551994 338.53464287 136.41315531 361.27627651 135.6328125 385.09765625 C135.62338623 385.83282471 135.61395996 386.56799316 135.60424805 387.32543945 C135.41510824 391.10779267 134.88811965 392.93617406 132.48828125 395.91015625 C130.11464313 397.81178335 127.78624332 399.51155599 125.1953125 401.09765625 C121.68506286 403.38898782 118.86143182 405.36851292 116.7578125 409.09765625 C116.88931076 411.84889878 116.88931076 411.84889878 117.7578125 414.09765625 C120.74726654 414.53513733 122.90233404 414.70785767 125.43359375 412.90234375 C126.59604404 411.83876854 127.75202174 410.76808734 128.90234375 409.69140625 C137.63196516 402.19312091 149.32878435 400.91406599 160.3828125 400.97265625 C161.48882812 400.96685547 161.48882812 400.96685547 162.6171875 400.9609375 C166.45557478 400.96781633 170.02755979 401.16877909 173.7578125 402.09765625 C168.92994843 396.14097504 158.66216448 394.37444506 151.4453125 392.91015625 C150.2284375 392.64203125 149.0115625 392.37390625 147.7578125 392.09765625 C146.5117729 389.60557705 146.68926671 388.0330322 146.765625 385.25 C147.00651973 372.82469041 146.79880793 361.17693819 143.7578125 349.09765625 C143.55913574 348.30407715 143.36045898 347.51049805 143.15576172 346.69287109 C140.05817003 334.71319628 135.71852779 323.92981906 129.7578125 313.09765625 C129.0978125 313.09765625 128.4378125 313.09765625 127.7578125 313.09765625 Z M-128.2421875 316.09765625 C-140.20459301 341.71168304 -146.98797275 368.82962185 -141.2421875 397.09765625 C-139.68593749 400.63009675 -138.32460073 403.68533285 -135.2421875 406.09765625 C-134.5821875 406.09765625 -133.9221875 406.09765625 -133.2421875 406.09765625 C-133.25789795 404.99703857 -133.2736084 403.8964209 -133.28979492 402.76245117 C-133.63508811 376.19144854 -132.94710242 350.52260895 -127.79296875 324.35546875 C-127.31278244 321.5152178 -127.12762585 318.96715273 -127.2421875 316.09765625 C-127.5721875 316.09765625 -127.9021875 316.09765625 -128.2421875 316.09765625 Z M46.7578125 371.09765625 C44.2828125 374.56265625 44.2828125 374.56265625 41.7578125 378.09765625 C42.0878125 378.75765625 42.4178125 379.41765625 42.7578125 380.09765625 C45.0678125 377.45765625 47.3778125 374.81765625 49.7578125 372.09765625 C48.7678125 371.76765625 47.7778125 371.43765625 46.7578125 371.09765625 Z M39.7578125 380.09765625 C40.0878125 380.75765625 40.4178125 381.41765625 40.7578125 382.09765625 C41.0878125 381.43765625 41.4178125 380.77765625 41.7578125 380.09765625 C41.0978125 380.09765625 40.4378125 380.09765625 39.7578125 380.09765625 Z M37.7578125 383.09765625 C38.7578125 385.09765625 38.7578125 385.09765625 38.7578125 385.09765625 Z M-175.2421875 424.09765625 C-177.7623446 427.52740648 -180.00253887 431.02607295 -182.1640625 434.6875 C-186.87151205 442.41231852 -186.87151205 442.41231852 -190.2421875 444.09765625 C-190.2421875 444.75765625 -190.2421875 445.41765625 -190.2421875 446.09765625 C-191.05236328 446.49017578 -191.05236328 446.49017578 -191.87890625 446.890625 C-193.5760208 447.75741574 -195.24285951 448.68446096 -196.88671875 449.6484375 C-205.45948195 454.41578177 -213.76346348 456.62109745 -223.42114258 458.32348633 C-229.00203993 459.30813734 -229.00203993 459.30813734 -233.859375 462.0546875 C-238.89663954 469.49674783 -235.29892386 481.12281284 -233.73901367 489.40698242 C-233.37519581 491.27911198 -233.00090736 493.14924741 -232.61450195 495.0168457 C-229.59133994 510.26849705 -231.75074759 524.52154976 -238.9296875 538.34765625 C-241.19734615 543.09894105 -241.58262996 546.66293446 -240.3671875 551.78515625 C-237.11973423 556.84736282 -232.38359791 558.25695174 -226.68362427 559.78237915 C-223.91038706 560.3876315 -221.1323275 560.92067659 -218.33984375 561.4296875 C-216.22410841 561.83587142 -214.10838623 562.24212394 -211.99267578 562.6484375 C-210.89957092 562.8542041 -209.80646606 563.0599707 -208.68023682 563.27197266 C-183.41871103 568.04793349 -159.04082709 573.61886403 -134.92431641 582.63476562 C-120.51110542 588.00159097 -105.40488259 593.16688763 -90.49609375 586.953125 C-84.82563253 584.27611748 -84.82563253 584.27611748 -80.2421875 580.09765625 C-80.2421875 579.43765625 -80.2421875 578.77765625 -80.2421875 578.09765625 C-79.5821875 578.09765625 -78.9221875 578.09765625 -78.2421875 578.09765625 C-77.42207438 576.5391387 -76.61142537 574.97563909 -75.8046875 573.41015625 C-75.12599609 572.10498047 -75.12599609 572.10498047 -74.43359375 570.7734375 C-70.64892918 562.27345313 -71.77272136 553.90069707 -74.86328125 545.3828125 C-79.82195002 533.56910021 -86.76700026 522.97333078 -93.79345703 512.31445312 C-96.21804572 508.60443202 -98.57213149 504.85049243 -100.9296875 501.09765625 C-106.26890286 492.61297904 -111.67451983 484.17192899 -117.09277344 475.73754883 C-121.20245531 469.3265823 -125.24765098 462.87988945 -129.25146484 456.40234375 C-134.87819754 447.30610128 -140.5149086 438.43144951 -147.2421875 430.09765625 C-147.91507812 429.21980469 -148.58796875 428.34195312 -149.28125 427.4375 C-152.92410213 423.09075015 -157.19112069 421.04396087 -162.6796875 420.09765625 C-167.79690561 419.81192326 -171.37774298 420.63145602 -175.2421875 424.09765625 Z M109.7578125 431.09765625 C106.05008086 436.91088647 105.90088551 442.97480409 105.3203125 449.72265625 C105.13397191 451.66482725 104.94757842 453.60699391 104.75917053 455.54896545 C104.55854381 457.62691283 104.36235475 459.70524295 104.16699219 461.78369141 C101.67755287 488.13862558 98.25008456 514.00399269 92.484375 539.8671875 C87.67513209 560.93894296 87.67513209 560.93894296 93.1015625 581.09375 C100.94035364 590.57794777 112.36039126 594.74261117 124.3828125 596.09765625 C141.89712065 596.79907879 156.15958481 586.72455863 168.69140625 575.4609375 C170.17159262 574.0891536 171.64547237 572.71081154 173.11914062 571.33203125 C188.5458462 557.00295673 206.48361084 546.68850705 224.98046875 536.84375 C239.72931816 529.00760529 239.72931816 529.00760529 249.7578125 516.09765625 C249.53291788 510.9716099 246.96394066 508.74297155 243.421875 505.35546875 C239.65105622 502.15967218 235.66423224 499.31313383 231.5949707 496.51098633 C228.7321594 494.5394089 226.20928799 492.54913174 223.7578125 490.09765625 C223.0978125 490.09765625 222.4378125 490.09765625 221.7578125 490.09765625 C221.7578125 489.43765625 221.7578125 488.77765625 221.7578125 488.09765625 C221.2009375 487.60265625 220.6440625 487.10765625 220.0703125 486.59765625 C211.90193037 477.76697287 210.53475862 466.0174642 209.63476562 454.54492188 C209.10077624 448.87308866 207.89002584 445.22986959 203.7578125 441.09765625 C200.15714872 441.21459256 198.34877557 441.52155298 195.73828125 444.06640625 C195.14660156 444.90171875 194.55492187 445.73703125 193.9453125 446.59765625 C183.5682128 460.31653383 170.85016263 469.66623747 153.7578125 473.09765625 C144.65928355 474.16159713 136.06199742 472.6448442 128.4453125 467.41015625 C121.88362959 462.06801844 118.73787815 455.09599107 117.1328125 446.91015625 C116.7183114 442.69606169 116.72811248 438.5851446 116.8203125 434.35546875 C117.01747805 432.12823193 117.01747805 432.12823193 115.7578125 431.09765625 C113.75822886 431.05684842 111.75735996 431.05511269 109.7578125 431.09765625 Z " fill="#020202" transform="translate(344.2421875,39.90234375)"/>
<path d="M0 0 C1.21580373 3.92326581 1.34484156 7.92731894 1.5625 12 C1.6035083 12.76401123 1.6445166 13.52802246 1.68676758 14.31518555 C2.44858834 29.31343317 1.67621164 44.1964509 -1 59 C-7.7624898 57.73919682 -13.81319382 55.62722806 -20.1796875 53.0234375 C-22.96996657 51.82944212 -22.96996657 51.82944212 -26 52 C-26 51.34 -26 50.68 -26 50 C-31.98790928 48.31918336 -37.27004036 47.25400807 -43.5 48.5 C-46.69307239 49.13861448 -49.75292759 49.06366809 -53 49 C-53.495 49.99 -53.495 49.99 -54 51 C-54 50.01 -54 49.02 -54 48 C-64.96759203 47.16781636 -72.54979966 49.0954817 -82.625 53.5 C-85.07130002 54.54169544 -87.5233675 55.56825589 -89.9765625 56.59375 C-91.03955566 57.05458984 -92.10254883 57.51542969 -93.19775391 57.99023438 C-96 59 -96 59 -100 59 C-102.09064915 40.29556409 -101.78901777 22.68935347 -100 4 C-95.73966066 4.67460014 -91.78772774 5.58437378 -87.6875 6.9375 C-86.63949219 7.27652344 -85.59148437 7.61554688 -84.51171875 7.96484375 C-82 9 -82 9 -81 11 C-78.56148051 11.8797567 -78.56148051 11.8797567 -75.6875 12.5625 C-74.23923828 12.93568359 -74.23923828 12.93568359 -72.76171875 13.31640625 C-71.85035156 13.54199219 -70.93898438 13.76757812 -70 14 C-69.32582031 14.21269531 -68.65164063 14.42539062 -67.95703125 14.64453125 C-65.42209722 15.10496837 -63.50766138 14.68310756 -61 14.125 C-60.154375 13.94195312 -59.30875 13.75890625 -58.4375 13.5703125 C-56.89047777 13.20834897 -55.34884582 12.82177712 -53.81640625 12.40234375 C-51.57663931 11.90622333 -50.18153727 12.36665047 -48 13 C-47.01 13 -46.02 13 -45 13 C-44.34 13.33 -43.68 13.66 -43 14 C-33.6855771 15.28198509 -26.2793588 10.92477906 -18.125 7 C-16.00753067 5.99612704 -13.88790673 4.99722192 -11.76535034 4.00415039 C-10.45200406 3.38811566 -9.14187419 2.76516463 -7.83547974 2.13452148 C-5.0164581 0.79838943 -3.16389933 0 0 0 Z " fill="#040404" transform="translate(384,260)"/>
<path d="M0 0 C1.7074998 1.28062485 3.37373596 2.61767557 5 4 C5 4.66 5 5.32 5 6 C5.99 6.33 6.98 6.66 8 7 C9.2890625 8.71484375 9.2890625 8.71484375 10.625 10.9375 C12.98181212 14.63101154 15.5341972 17.83706463 18.5 21.0625 C29.82992801 33.38762439 29.82992801 33.38762439 30 39 C29 40 29 40 26.0625 40.125 C20.06045033 39.1573226 16.12660758 34.09613042 12 30 C11.05511719 29.0925 10.11023438 28.185 9.13671875 27.25 C4.00172038 22.25300017 4.00172038 22.25300017 2 20 C2 19.34 2 18.68 2 18 C-2.2466981 21.31449608 -5.70312426 24.85347596 -9.20703125 28.9375 C-17.70399221 38.71178189 -17.70399221 38.71178189 -23 40 C-24.32 40 -25.64 40 -27 40 C-27.33 38.68 -27.66 37.36 -28 36 C-27.34 36 -26.68 36 -26 36 C-25.78085937 35.32710938 -25.56171875 34.65421875 -25.3359375 33.9609375 C-23.58921346 30.08954329 -21.20273146 26.98242576 -18.625 23.625 C-18.10131836 22.93470703 -17.57763672 22.24441406 -17.03808594 21.53320312 C-11.48734805 14.25343849 -5.76320488 7.11204006 0 0 Z " fill="#0A0A0A" transform="translate(319,474)"/>
<path d="M0 0 C4.67114994 3.47620461 5.76086115 6.71016408 6.73828125 12.20703125 C6.82464844 12.79871094 6.91101563 13.39039063 7 14 C6.34 14 5.68 14 5 14 C4.9175 14.5775 4.835 15.155 4.75 15.75 C3.75807981 18.72576056 2.43312373 20.03998366 0 22 C-2.9073593 23.04366744 -4.54762649 23.0993015 -7.5625 22.4375 C-10.95267909 20.43816361 -12.24169011 18.51661979 -14 15 C-14.7147289 10.49103128 -14.54107269 5.86684975 -12 2 C-7.79913952 -0.37784556 -4.60253426 -1.93790916 0 0 Z " fill="#0A0A0A" transform="translate(325,430)"/>
<path d="M0 0 C3.51038651 2.59463351 4.77811815 4.23728114 6 8.4375 C6 13.2800974 4.48488069 16.14389914 1.5 19.875 C0 21 0 21 -3 21 C-3.33 21.66 -3.66 22.32 -4 23 C-8.07894286 20.81035372 -11.33206641 18.93105894 -14.0625 15.125 C-15.22952374 11.23492087 -15.06717756 8.9129844 -14 5 C-10.09894489 -0.98161784 -6.86046287 -1.6559738 0 0 Z " fill="#090909" transform="translate(334,327)"/>
<path d="M0 0 C2.91086669 0 4.7614167 0.42246043 7.5 1.3125 C8.66015625 1.67794922 8.66015625 1.67794922 9.84375 2.05078125 C12.20656048 3.09093151 13.43090515 3.95585809 15 6 C16.4545448 10.57267077 16.45772177 14.0493471 14.375 18.375 C11.10219615 21.99230952 8.75718074 23.67725252 3.9375 24.5625 C1 24 1 24 -1.3125 21.5 C-3.20399317 17.57690305 -4.25328379 14.36696197 -4 10 C-2.625 6.75 -2.625 6.75 -1 4 C-0.31363375 1.76474965 -0.31363375 1.76474965 0 0 Z " fill="#0B0C0C" transform="translate(318,376)"/>
<path d="M0 0 C0.3125 2.75 0.3125 2.75 0 6 C-3.72578676 9.72578676 -6.53869533 10.95208837 -11.8125 11.125 C-18.74233785 10.9848746 -18.74233785 10.9848746 -22 10 C-24.02743257 7.58016113 -24.93908068 6.0356285 -25.125 2.875 C-23.67342323 0.45570539 -21.97740223 -0.47325445 -19.37109375 -1.46484375 C-13.15565004 -2.86767042 -5.58663792 -3.41179104 0 0 Z " fill="#0C0C0C" transform="translate(322,213)"/>
<path d="M0 0 C0.66 0.66 1.32 1.32 2 2 C1.01 1.67 0.02 1.34 -1 1 C-0.67 0.67 -0.34 0.34 0 0 Z " fill="#DFDFDF" transform="translate(306,162)"/>
<path d="" fill="#AAAAAA" transform="translate(0,0)"/>
<path d="M0 0 C0.66 0 1.32 0 2 0 C1.67 0.66 1.34 1.32 1 2 C0.67 1.34 0.34 0.68 0 0 Z " fill="#636363" transform="translate(313,396)"/>
<path d="M0 0 C3 1 3 1 3 1 Z " fill="#D4D4D4" transform="translate(322,272)"/>
<path d="M0 0 C3 1 3 1 3 1 Z " fill="#9C9C9C" transform="translate(327,234)"/>
<path d="M0 0 C0.66 0.66 1.32 1.32 2 2 C1.34 2 0.68 2 0 2 C0 1.34 0 0.68 0 0 Z " fill="#8D8D8D" transform="translate(297,220)"/>
<path d="M0 0 C0.66 0.66 1.32 1.32 2 2 C1.34 2 0.68 2 0 2 C0 1.34 0 0.68 0 0 Z " fill="#909090" transform="translate(277,184)"/>
<path d="" fill="#9C9C9C" transform="translate(0,0)"/>
<path d="M0 0 C2 1 2 1 2 1 Z " fill="#BFBFBF" transform="translate(289,512)"/>
<path d="" fill="#BFBFBF" transform="translate(0,0)"/>
<path d="" fill="#6A6A6A" transform="translate(0,0)"/>
<path d="" fill="#6A6A6A" transform="translate(0,0)"/>
<path d="" fill="#BFBFBF" transform="translate(0,0)"/>
<path d="" fill="#FFFFFF" transform="translate(0,0)"/>
<path d="M0 0 C2 1 2 1 2 1 Z " fill="#808080" transform="translate(322,347)"/>
<path d="M0 0 C2 1 2 1 2 1 Z " fill="#BFBFBF" transform="translate(332,325)"/>
<path d="M0 0 C2 1 2 1 2 1 Z " fill="#BFBFBF" transform="translate(301,314)"/>
<path d="" fill="#BFBFBF" transform="translate(0,0)"/>
<path d="M0 0 C2 1 2 1 2 1 Z " fill="#BFBFBF" transform="translate(434,296)"/>
<path d="M0 0 C2 1 2 1 2 1 Z " fill="#BFBFBF" transform="translate(347,273)"/>
<path d="M0 0 C2 1 2 1 2 1 Z " fill="#6A6A6A" transform="translate(321,269)"/>
<path d="" fill="#BFBFBF" transform="translate(0,0)"/>
<path d="M0 0 C2 1 2 1 2 1 Z " fill="#BFBFBF" transform="translate(327,268)"/>
<path d="M0 0 C2 1 2 1 2 1 Z " fill="#555555" transform="translate(378,259)"/>
<path d="M0 0 C2 1 2 1 2 1 Z " fill="#FFFFFF" transform="translate(380,258)"/>
<path d="" fill="#FFFFFF" transform="translate(0,0)"/>
<path d="M0 0 C2 1 2 1 2 1 Z " fill="#BFBFBF" transform="translate(336,233)"/>
<path d="" fill="#BFBFBF" transform="translate(0,0)"/>
<path d="" fill="#6A6A6A" transform="translate(0,0)"/>
<path d="M0 0 C2 1 2 1 2 1 Z " fill="#808080" transform="translate(312,209)"/>
<path d="M0 0 C2 1 2 1 2 1 Z " fill="#BFBFBF" transform="translate(380,202)"/>
<path d="M0 0 C2 1 2 1 2 1 Z " fill="#BFBFBF" transform="translate(352,191)"/>
<path d="M0 0 C2 1 2 1 2 1 Z " fill="#595959" transform="translate(349,191)"/>
<path d="" fill="#555555" transform="translate(0,0)"/>
<path d="M0 0 C2 1 2 1 2 1 Z " fill="#BFBFBF" transform="translate(277,187)"/>
<path d="M0 0 C2 1 2 1 2 1 Z " fill="#6A6A6A" transform="translate(332,182)"/>
<path d="" fill="#BFBFBF" transform="translate(0,0)"/>
<path d="" fill="#BFBFBF" transform="translate(0,0)"/>
<path d="" fill="#808080" transform="translate(0,0)"/>
<path d="" fill="#FFFFFF" transform="translate(0,0)"/>
<path d="" fill="#6A6A6A" transform="translate(0,0)"/>
<path d="" fill="#BFBFBF" transform="translate(0,0)"/>
<path d="" fill="#000000" transform="translate(0,0)"/>
<path d="" fill="#555555" transform="translate(0,0)"/>
<path d="" fill="#555555" transform="translate(0,0)"/>
<path d="" fill="#FFFFFF" transform="translate(0,0)"/>
<path d="" fill="#808080" transform="translate(0,0)"/>
<path d="" fill="#FFFFFF" transform="translate(0,0)"/>
<path d="" fill="#FFFFFF" transform="translate(0,0)"/>
<path d="" fill="#FFFFFF" transform="translate(0,0)"/>
<path d="" fill="#FFFFFF" transform="translate(0,0)"/>
<path d="" fill="#FFFFFF" transform="translate(0,0)"/>
<path d="" fill="#555555" transform="translate(0,0)"/>
<path d="" fill="#808080" transform="translate(0,0)"/>
<path d="" fill="#808080" transform="translate(0,0)"/>
<path d="" fill="#808080" transform="translate(0,0)"/>
<path d="" fill="#FFFFFF" transform="translate(0,0)"/>
<path d="" fill="#808080" transform="translate(0,0)"/>
<path d="" fill="#555555" transform="translate(0,0)"/>
<path d="" fill="#FFFFFF" transform="translate(0,0)"/>
<path d="" fill="#FFFFFF" transform="translate(0,0)"/>
<path d="" fill="#FFFFFF" transform="translate(0,0)"/>
<path d="" fill="#FFFFFF" transform="translate(0,0)"/>
<path d="" fill="#808080" transform="translate(0,0)"/>
<path d="" fill="#FFFFFF" transform="translate(0,0)"/>
<path d="" fill="#FFFFFF" transform="translate(0,0)"/>
<path d="" fill="#FFFFFF" transform="translate(0,0)"/>
<path d="" fill="#FFFFFF" transform="translate(0,0)"/>
<path d="" fill="#FFFFFF" transform="translate(0,0)"/>
<path d="" fill="#808080" transform="translate(0,0)"/>
<path d="" fill="#808080" transform="translate(0,0)"/>
<path d="" fill="#808080" transform="translate(0,0)"/>
<path d="" fill="#808080" transform="translate(0,0)"/>
<path d="" fill="#FFFFFF" transform="translate(0,0)"/>
<path d="" fill="#808080" transform="translate(0,0)"/>
<path d="" fill="#FFFFFF" transform="translate(0,0)"/>
<path d="" fill="#FFFFFF" transform="translate(0,0)"/>
<path d="" fill="#FFFFFF" transform="translate(0,0)"/>
<path d="" fill="#FFFFFF" transform="translate(0,0)"/>
<path d="" fill="#808080" transform="translate(0,0)"/>
<path d="" fill="#333333" transform="translate(0,0)"/>
<path d="" fill="#808080" transform="translate(0,0)"/>
<path d="" fill="#FFFFFF" transform="translate(0,0)"/>
<path d="" fill="#FFFFFF" transform="translate(0,0)"/>
<path d="" fill="#808080" transform="translate(0,0)"/>
<path d="" fill="#808080" transform="translate(0,0)"/>
<path d="" fill="#808080" transform="translate(0,0)"/>
<path d="" fill="#FFFFFF" transform="translate(0,0)"/>
<path d="" fill="#555555" transform="translate(0,0)"/>
<path d="" fill="#808080" transform="translate(0,0)"/>
<path d="" fill="#FFFFFF" transform="translate(0,0)"/>
<path d="" fill="#FFFFFF" transform="translate(0,0)"/>
<path d="" fill="#808080" transform="translate(0,0)"/>
<path d="" fill="#FFFFFF" transform="translate(0,0)"/>
<path d="" fill="#FFFFFF" transform="translate(0,0)"/>
<path d="" fill="#808080" transform="translate(0,0)"/>
<path d="" fill="#FFFFFF" transform="translate(0,0)"/>
<path d="" fill="#FFFFFF" transform="translate(0,0)"/>
<path d="" fill="#FFFFFF" transform="translate(0,0)"/>
<path d="" fill="#FFFFFF" transform="translate(0,0)"/>
<path d="" fill="#FFFFFF" transform="translate(0,0)"/>
<path d="" fill="#808080" transform="translate(0,0)"/>
<path d="" fill="#FFFFFF" transform="translate(0,0)"/>
<path d="" fill="#555555" transform="translate(0,0)"/>
<path d="" fill="#FFFFFF" transform="translate(0,0)"/>
<path d="" fill="#555555" transform="translate(0,0)"/>
<path d="" fill="#FFFFFF" transform="translate(0,0)"/>
<path d="" fill="#FFFFFF" transform="translate(0,0)"/>
<path d="" fill="#555555" transform="translate(0,0)"/>
<path d="" fill="#FFFFFF" transform="translate(0,0)"/>
<path d="" fill="#808080" transform="translate(0,0)"/>
<path d="" fill="#555555" transform="translate(0,0)"/>
<path d="" fill="#808080" transform="translate(0,0)"/>
<path d="" fill="#333333" transform="translate(0,0)"/>
<path d="" fill="#FFFFFF" transform="translate(0,0)"/>
<path d="" fill="#FFFFFF" transform="translate(0,0)"/>
<path d="" fill="#FFFFFF" transform="translate(0,0)"/>
<path d="" fill="#808080" transform="translate(0,0)"/>
<path d="" fill="#808080" transform="translate(0,0)"/>
<path d="" fill="#808080" transform="translate(0,0)"/>
<path d="" fill="#FFFFFF" transform="translate(0,0)"/>
<path d="" fill="#808080" transform="translate(0,0)"/>
<path d="" fill="#FFFFFF" transform="translate(0,0)"/>
<path d="" fill="#FFFFFF" transform="translate(0,0)"/>
<path d="" fill="#FFFFFF" transform="translate(0,0)"/>
<path d="" fill="#FFFFFF" transform="translate(0,0)"/>
<path d="" fill="#FFFFFF" transform="translate(0,0)"/>
<path d="" fill="#000000" transform="translate(0,0)"/>
<path d="" fill="#FFFFFF" transform="translate(0,0)"/>
<path d="" fill="#808080" transform="translate(0,0)"/>
<path d="" fill="#000000" transform="translate(0,0)"/>
<path d="" fill="#333333" transform="translate(0,0)"/>
<path d="" fill="#000000" transform="translate(0,0)"/>
<path d="" fill="#000000" transform="translate(0,0)"/>
<path d="" fill="#FFFFFF" transform="translate(0,0)"/>
<path d="" fill="#333333" transform="translate(0,0)"/>
<path d="" fill="#FFFFFF" transform="translate(0,0)"/>
<path d="" fill="#555555" transform="translate(0,0)"/>
<path d="" fill="#555555" transform="translate(0,0)"/>
<path d="" fill="#555555" transform="translate(0,0)"/>
<path d="" fill="#808080" transform="translate(0,0)"/>
<path d="" fill="#555555" transform="translate(0,0)"/>
<path d="" fill="#FFFFFF" transform="translate(0,0)"/>
<path d="" fill="#FFFFFF" transform="translate(0,0)"/>
<path d="" fill="#808080" transform="translate(0,0)"/>
<path d="" fill="#808080" transform="translate(0,0)"/>
<path d="" fill="#808080" transform="translate(0,0)"/>
<path d="" fill="#FFFFFF" transform="translate(0,0)"/>
<path d="" fill="#555555" transform="translate(0,0)"/>
<path d="" fill="#808080" transform="translate(0,0)"/>
<path d="" fill="#FFFFFF" transform="translate(0,0)"/>
<path d="" fill="#FFFFFF" transform="translate(0,0)"/>
<path d="" fill="#FFFFFF" transform="translate(0,0)"/>
<path d="" fill="#808080" transform="translate(0,0)"/>
<path d="" fill="#FFFFFF" transform="translate(0,0)"/>
<path d="" fill="#555555" transform="translate(0,0)"/>
<path d="" fill="#808080" transform="translate(0,0)"/>
<path d="" fill="#FFFFFF" transform="translate(0,0)"/>
<path d="" fill="#FFFFFF" transform="translate(0,0)"/>
<path d="" fill="#808080" transform="translate(0,0)"/>
<path d="" fill="#FFFFFF" transform="translate(0,0)"/>
<path d="" fill="#808080" transform="translate(0,0)"/>
<path d="" fill="#FFFFFF" transform="translate(0,0)"/>
<path d="" fill="#FFFFFF" transform="translate(0,0)"/>
<path d="" fill="#808080" transform="translate(0,0)"/>
<path d="" fill="#FFFFFF" transform="translate(0,0)"/>
<path d="" fill="#555555" transform="translate(0,0)"/>
<path d="" fill="#808080" transform="translate(0,0)"/>
<path d="" fill="#808080" transform="translate(0,0)"/>
<path d="" fill="#FFFFFF" transform="translate(0,0)"/>
<path d="" fill="#FFFFFF" transform="translate(0,0)"/>
<path d="" fill="#808080" transform="translate(0,0)"/>
<path d="" fill="#FFFFFF" transform="translate(0,0)"/>
<path d="" fill="#FFFFFF" transform="translate(0,0)"/>
<path d="" fill="#FFFFFF" transform="translate(0,0)"/>
<path d="" fill="#FFFFFF" transform="translate(0,0)"/>
<path d="" fill="#FFFFFF" transform="translate(0,0)"/>
<path d="" fill="#808080" transform="translate(0,0)"/>
<path d="" fill="#FFFFFF" transform="translate(0,0)"/>
<path d="" fill="#FFFFFF" transform="translate(0,0)"/>
<path d="" fill="#808080" transform="translate(0,0)"/>
<path d="" fill="#FFFFFF" transform="translate(0,0)"/>
<path d="" fill="#FFFFFF" transform="translate(0,0)"/>
<path d="" fill="#555555" transform="translate(0,0)"/>
<path d="" fill="#808080" transform="translate(0,0)"/>
<path d="" fill="#555555" transform="translate(0,0)"/>
<path d="" fill="#FFFFFF" transform="translate(0,0)"/>
<path d="" fill="#808080" transform="translate(0,0)"/>
<path d="" fill="#808080" transform="translate(0,0)"/>
<path d="" fill="#808080" transform="translate(0,0)"/>
<path d="" fill="#808080" transform="translate(0,0)"/>
<path d="" fill="#FFFFFF" transform="translate(0,0)"/>
<path d="" fill="#555555" transform="translate(0,0)"/>
<path d="" fill="#FFFFFF" transform="translate(0,0)"/>
<path d="" fill="#FFFFFF" transform="translate(0,0)"/>
<path d="" fill="#FFFFFF" transform="translate(0,0)"/>
<path d="" fill="#FFFFFF" transform="translate(0,0)"/>
<path d="" fill="#808080" transform="translate(0,0)"/>
<path d="" fill="#FFFFFF" transform="translate(0,0)"/>
<path d="" fill="#FFFFFF" transform="translate(0,0)"/>
<path d="" fill="#FFFFFF" transform="translate(0,0)"/>
<path d="" fill="#FFFFFF" transform="translate(0,0)"/>
<path d="" fill="#FFFFFF" transform="translate(0,0)"/>
<path d="" fill="#333333" transform="translate(0,0)"/>
<path d="" fill="#FFFFFF" transform="translate(0,0)"/>
<path d="" fill="#808080" transform="translate(0,0)"/>
<path d="" fill="#FFFFFF" transform="translate(0,0)"/>
<path d="" fill="#FFFFFF" transform="translate(0,0)"/>
<path d="" fill="#FFFFFF" transform="translate(0,0)"/>
<path d="" fill="#FFFFFF" transform="translate(0,0)"/>
<path d="" fill="#555555" transform="translate(0,0)"/>
<path d="" fill="#FFFFFF" transform="translate(0,0)"/>
<path d="" fill="#808080" transform="translate(0,0)"/>
<path d="" fill="#FFFFFF" transform="translate(0,0)"/>
<path d="" fill="#FFFFFF" transform="translate(0,0)"/>
<path d="" fill="#555555" transform="translate(0,0)"/>
<path d="" fill="#FFFFFF" transform="translate(0,0)"/>
<path d="" fill="#555555" transform="translate(0,0)"/>
<path d="" fill="#FFFFFF" transform="translate(0,0)"/>
<path d="" fill="#FFFFFF" transform="translate(0,0)"/>
<path d="" fill="#FFFFFF" transform="translate(0,0)"/>
<path d="" fill="#808080" transform="translate(0,0)"/>
<path d="" fill="#555555" transform="translate(0,0)"/>
<path d="" fill="#555555" transform="translate(0,0)"/>
<path d="" fill="#FFFFFF" transform="translate(0,0)"/>
<path d="" fill="#FFFFFF" transform="translate(0,0)"/>
<path d="" fill="#FFFFFF" transform="translate(0,0)"/>
<path d="" fill="#FFFFFF" transform="translate(0,0)"/>
<path d="" fill="#FFFFFF" transform="translate(0,0)"/>
<path d="" fill="#555555" transform="translate(0,0)"/>
<path d="" fill="#555555" transform="translate(0,0)"/>
<path d="" fill="#FFFFFF" transform="translate(0,0)"/>
<path d="" fill="#808080" transform="translate(0,0)"/>
<path d="" fill="#555555" transform="translate(0,0)"/>
<path d="" fill="#555555" transform="translate(0,0)"/>
<path d="" fill="#808080" transform="translate(0,0)"/>
<path d="" fill="#808080" transform="translate(0,0)"/>
<path d="" fill="#FFFFFF" transform="translate(0,0)"/>
<path d="" fill="#808080" transform="translate(0,0)"/>
<path d="" fill="#808080" transform="translate(0,0)"/>
<path d="" fill="#FFFFFF" transform="translate(0,0)"/>
<path d="" fill="#808080" transform="translate(0,0)"/>
<path d="" fill="#808080" transform="translate(0,0)"/>
<path d="" fill="#FFFFFF" transform="translate(0,0)"/>
<path d="" fill="#808080" transform="translate(0,0)"/>
<path d="" fill="#FFFFFF" transform="translate(0,0)"/>
<path d="" fill="#FFFFFF" transform="translate(0,0)"/>
<path d="" fill="#555555" transform="translate(0,0)"/>
<path d="" fill="#FFFFFF" transform="translate(0,0)"/>
<path d="" fill="#555555" transform="translate(0,0)"/>
<path d="" fill="#FFFFFF" transform="translate(0,0)"/>
<path d="" fill="#FFFFFF" transform="translate(0,0)"/>
<path d="" fill="#808080" transform="translate(0,0)"/>
<path d="" fill="#FFFFFF" transform="translate(0,0)"/>
</svg>
